<?xml version="1.0" standalone="no"?>
<!DOCTYPE svg PUBLIC "-//W3C//DTD SVG 20010904//EN"
 "http://www.w3.org/TR/2001/REC-SVG-20010904/DTD/svg10.dtd">
<svg version="1.0" xmlns="http://www.w3.org/2000/svg"
 width="512.000000pt" height="512.000000pt" viewBox="0 0 512.000000 512.000000"
 preserveAspectRatio="xMidYMid meet">
<metadata>
Created by potrace 1.11, written by Peter Selinger 2001-2013
</metadata>
<g transform="translate(0.000000,512.000000) scale(0.100000,-0.100000)"
fill="#000000" stroke="none">
<path d="M0 2560 l0 -2560 2560 0 2560 0 0 2560 0 2560 -2560 0 -2560 0 0
-2560z m2610 1653 c44 -26 50 -51 50 -213 l0 -150 -100 0 -100 0 0 153 c1 163
7 189 51 213 33 18 65 17 99 -3z m-943 -515 l123 -122 -72 -73 -73 -73 -108
107 c-141 141 -157 171 -120 233 20 34 46 48 92 49 31 1 47 -12 158 -121z
m2019 88 c63 -63 49 -98 -103 -249 l-108 -107 -73 73 -72 73 123 122 c114 112
127 122 161 122 30 0 45 -7 72 -34z m-864 -94 c398 -107 696 -422 778 -822 19
-89 21 -127 17 -245 -9 -244 -81 -442 -226 -622 -28 -35 -48 -63 -43 -63 4 0
32 15 63 34 207 125 439 135 643 28 104 -54 133 -119 80 -181 -37 -45 -82 -50
-139 -16 -77 44 -151 65 -235 65 -97 0 -156 -18 -250 -75 -197 -119 -439 -135
-620 -42 -36 19 -99 51 -140 73 -75 39 -76 39 -191 39 -115 0 -116 0 -190 -39
-175 -91 -208 -105 -281 -120 -97 -20 -159 -20 -256 0 -73 15 -106 29 -281
120 -74 39 -75 39 -191 39 l-116 0 -87 -43 c-97 -49 -127 -50 -168 -6 -18 19
-24 37 -24 69 0 52 17 72 93 113 210 111 441 103 647 -22 33 -20 63 -36 67
-36 5 0 -17 30 -47 68 -67 82 -145 230 -178 337 -74 237 -58 530 42 749 76
167 223 343 371 443 128 86 234 132 380 164 118 26 369 21 482 -9z m-1452
-1032 l0 -100 -154 0 c-151 0 -155 1 -184 25 -17 14 -33 39 -37 55 -8 36 17
93 48 108 12 6 89 11 175 11 l152 1 0 -100z m2719 79 c48 -45 50 -107 5 -150
-24 -23 -33 -24 -185 -27 l-159 -3 0 100 0 101 158 0 c147 0 160 -2 181 -21z
m-2569 -1075 c36 -8 99 -33 140 -56 133 -74 164 -87 232 -99 86 -16 181 -1
258 39 225 119 267 133 410 133 143 0 185 -14 410 -133 115 -60 265 -60 380 0
225 119 267 133 410 133 112 0 187 -18 288 -67 79 -38 112 -76 112 -128 0 -36
-58 -96 -93 -96 -14 0 -64 19 -112 42 -76 36 -99 42 -170 46 -104 6 -171 -13
-287 -80 -129 -74 -190 -91 -333 -92 -143 -1 -216 18 -340 89 -108 62 -179 85
-264 85 -76 0 -178 -27 -226 -60 -105 -73 -251 -120 -369 -120 -131 0 -235 32
-366 110 -154 92 -316 94 -470 6 -62 -36 -94 -34 -136 8 -56 56 -40 123 41
170 145 85 309 109 485 70z m5 -394 c42 -11 103 -34 134 -52 123 -69 170 -90
234 -101 93 -15 189 2 276 50 185 102 253 123 394 123 119 0 221 -29 337 -94
123 -70 192 -90 285 -83 85 7 139 25 227 78 37 22 100 53 140 67 66 24 87 27
208 27 115 -1 145 -4 200 -23 168 -59 231 -132 183 -212 -33 -57 -89 -64 -166
-21 -82 46 -159 64 -247 58 -85 -6 -128 -21 -237 -83 -113 -64 -182 -85 -299
-91 -158 -8 -223 10 -424 119 -85 47 -154 62 -247 55 -77 -6 -99 -15 -283
-112 -163 -87 -396 -87 -559 0 -178 95 -207 106 -284 112 -92 7 -161 -8 -245
-53 -81 -44 -114 -44 -158 0 -73 73 -32 142 123 210 112 49 276 60 408 26z"/>
<path d="M2385 3503 c-418 -89 -710 -473 -682 -897 17 -256 155 -504 360 -644
55 -39 59 -38 167 24 111 65 179 85 296 91 129 7 222 -13 324 -69 151 -82 150
-81 173 -70 42 19 157 122 207 185 62 78 132 217 162 322 30 106 32 313 4 420
-42 160 -135 316 -254 426 -114 105 -266 183 -414 213 -95 20 -250 19 -343 -1z
m259 -119 c13 -5 16 -24 16 -108 l0 -101 -100 0 -100 0 0 102 c0 72 4 103 13
106 18 8 152 8 171 1z m-447 -216 l73 -73 -53 -50 c-30 -27 -61 -61 -70 -75
l-17 -24 -75 74 c-41 41 -75 77 -75 81 0 9 129 139 138 139 4 0 39 -33 79 -72z
m842 40 c20 -17 51 -49 70 -70 l34 -40 -73 -73 -73 -73 -73 71 -72 72 71 73
c39 39 73 72 75 72 3 0 21 -14 41 -32z m-363 -183 c109 -32 212 -137 249 -254
25 -76 17 -188 -18 -263 -36 -80 -106 -151 -186 -191 -60 -29 -74 -32 -161
-32 -82 0 -103 4 -152 27 -216 101 -295 366 -166 558 45 68 119 127 192 152
63 22 175 23 242 3z m-629 -365 l0 -100 -102 0 -102 0 -7 31 c-3 17 -6 48 -6
69 0 21 3 52 6 69 l7 31 102 0 102 0 0 -100z m1237 69 c3 -17 6 -48 6 -69 0
-21 -3 -52 -6 -69 l-6 -31 -103 0 -102 0 0 100 0 100 102 0 103 0 6 -31z
m-1085 -431 l73 -71 -76 -76 -75 -75 -73 72 -72 73 74 74 c41 41 75 75 75 75
0 0 34 -32 74 -72z m871 -3 l74 -74 -72 -73 -73 -72 -75 76 -76 75 69 70 c37
38 70 70 73 71 3 1 39 -32 80 -73z"/>
<path d="M2485 2824 c-101 -52 -133 -170 -72 -263 51 -77 167 -100 245 -49 45
30 82 97 82 146 0 38 -23 98 -48 125 -47 53 -147 72 -207 41z"/>
</g>
</svg>
