<svg height="50" viewBox="0 0 171 50" width="171" xmlns="http://www.w3.org/2000/svg"><g fill="#fff" fill-rule="evenodd" transform=""><path d="m47.3240102 39.8386286c.7021387.4736855.8872246 1.4269937.4135391 2.1291324-.4739437.7016225-1.4269937.8867083-2.1291325.4130228-1.0751499-.7253713-2.332288-1.1089662-3.6353749-1.1089662-1.303345 0-2.5604831.3835949-3.6353748 1.1089662-1.5839424 1.0689546-3.4342845 1.6337632-5.3512264 1.6337632-1.916942 0-3.7672841-.5648086-5.3509683-1.6337632-1.0751499-.7253713-2.332288-1.1089662-3.6353749-1.1089662-1.303345 0-2.5604831.3835949-3.635633 1.1089662-1.5834261 1.0689546-3.4340263 1.6337632-5.3509683 1.6337632s-3.767284-.5648086-5.35096825-1.6337632c-1.07514992-.7253713-2.33228801-1.1089662-3.63537488-1.1089662-1.30334501 0-2.5604831.3835949-3.63537489 1.1089662-.70213873.4736855-1.65544693.2888578-2.12913243-.4130228-.47394365-.7021387-.28885781-1.6554469.41328092-2.1291324 1.58368422-1.0689546 3.43402628-1.6340214 5.3512264-1.6340214 1.91694198 0 3.76728404.5650668 5.35096823 1.6340214 1.07515.7253712 2.3320299 1.1089662 3.6353749 1.1089662s2.560225-.383595 3.6353749-1.1089662c1.5836842-1.0689546 3.4340263-1.6340214 5.3512264-1.6340214 1.916942 0 3.767284.5650668 5.3509683 1.6340214 1.0751499.7253712 2.332288 1.1089662 3.6353749 1.1089662 1.303345 0 2.5604831-.383595 3.6353748-1.1089662 1.5836843-1.0689546 3.4340263-1.6340214 5.3512264-1.6340214 1.916942 0 3.7672841.5650668 5.3509683 1.6340214zm0 5.6788051c.7021387.4736855.8872246 1.4269937.4135391 2.1291324-.4739437.7016225-1.4269937.8869664-2.1291325.4132809-1.0751499-.7256294-2.332288-1.1092243-3.6353749-1.1092243-1.303345 0-2.5604831.3835949-3.6353748 1.1092243-1.5839424 1.0686965-3.4342845 1.6337633-5.3512264 1.6337633-1.916942 0-3.7672841-.5650668-5.3509683-1.6337633-1.0751499-.7256294-2.332288-1.1092243-3.6353749-1.1092243-1.303345 0-2.5604831.3835949-3.635633 1.1092243-1.5834261 1.0686965-3.4340263 1.6337633-5.3509683 1.6337633s-3.767284-.5650668-5.35096825-1.6337633c-1.07514992-.7256294-2.33228801-1.1092243-3.63537488-1.1092243-1.30334501 0-2.5604831.3835949-3.63537489 1.1092243-.70213873.4736855-1.65544693.2885997-2.12913243-.4132809-.47394365-.7021387-.28885781-1.6554469.41328092-2.1291324 1.58368422-1.0686965 3.43402628-1.6337633 5.3512264-1.6337633 1.91694198 0 3.76728404.5650668 5.35096823 1.6337633 1.07515.7256294 2.3320299 1.1089661 3.6353749 1.1089661s2.560225-.3833367 3.6353749-1.1089661c1.5836842-1.0686965 3.4340263-1.6337633 5.3512264-1.6337633 1.916942 0 3.767284.5650668 5.3509683 1.6337633 1.0751499.7256294 2.332288 1.1089661 3.6353749 1.1089661 1.303345 0 2.5604831-.3833367 3.6353748-1.1089661 1.5836843-1.0686965 3.4340263-1.6337633 5.3512264-1.6337633 1.916942 0 3.7672841.5650668 5.3509683 1.6337633zm-21.7989442-39.79422866c-.5054366-.04310925-1.0168105-.06634178-1.5333471-.06634178-.5167947 0-1.0279104.02323253-1.5336052.06634178v-4.18959983c0-.84695484.6866504-1.53360521 1.5336052-1.53360521s1.5333471.68665037 1.5333471 1.53360521zm-15.0840437 6.37036016-3.28043344-3.28017534c-.5986249-.59888303-.5986249-1.57000284 0-2.16888588.59914117-.59888303 1.57000284-.59888303 2.16888587 0l3.28043347 3.28043344c-.7834526.65954578-1.509082 1.38543328-2.1688859 2.16862778zm27.3510784.0002581c-.6598039-.7834526-1.3854333-1.5093401-2.1688859-2.16888588l3.2804335-3.28043344c.5991411-.59888303 1.5700028-.59888303 2.1688858 0 .5988831.59888304.5988831 1.57000285 0 2.16888588zm-13.7162284 8.7847364c-1.4783634 0-2.680776 1.2026707-2.680776 2.680776s1.2024126 2.680776 2.680776 2.680776c1.4781053 0 2.680776-1.2026707 2.680776-2.680776s-1.2026707-2.680776-2.680776-2.680776zm0 8.4285043c-3.1694336 0-5.7479864-2.5782948-5.7479864-5.7477283 0-3.1694336 2.5785528-5.7477283 5.7479864-5.7477283 3.1691754 0 5.7477283 2.5782947 5.7477283 5.7477283 0 3.1694335-2.5785529 5.7477283-5.7477283 5.7477283zm-.0757748-18.754332c-7.1034755 0-12.8826968 5.7792213-12.8826968 12.8826969 0 4.5068529 2.3521647 8.6675411 6.1780464 11.0026687.5245389-.1781161 1.0217151-.4246391 1.4840425-.7367294 1.5449633-1.0428825 3.350131-1.5940098 5.2206079-1.5940098 1.8702188 0 3.6753865.5511273 5.2203498 1.5940098.4623274.3120903.9595036.5586133 1.4840425.7367294 3.8258816-2.3351276 6.1780464-6.4958158 6.1780464-11.0026687 0-7.1034756-5.7789631-12.8826969-12.8824387-12.8826969zm-21.60831932 25.8268308c-.70213873.4736855-1.65544693.2885997-2.12913243-.4132809-.47394365-.7021387-.28885781-1.6551888.41328092-2.1288743 1.58368422-1.0689546 3.43402628-1.6337633 5.3512264-1.6337633 1.91694198 0 3.76728404.5648087 5.35096823 1.6337633.3340322.2253555.685876.4179274 1.051143.5759086-2.77035029-2.9211036-4.37881589-6.8308805-4.37881589-10.9778873 0-8.7948039 7.15484529-15.949391 15.94964909-15.949391 8.7945457 0 15.9496491 7.1545871 15.9496491 15.949391 0 4.1470068-1.6087237 8.0567837-4.379074 10.9778873.365267-.1579812.7171108-.3505531 1.0511429-.5759086 1.5836843-1.0689546 3.4340263-1.6337633 5.3512264-1.6337633 1.916942 0 3.7672841.5648087 5.3509683 1.6337633.7021387.4736855.8872246 1.4267356.4135391 2.1288743-.4739437.7018806-1.4269937.8869664-2.1291325.4132809-1.0751499-.7256294-2.332288-1.1092243-3.6353749-1.1092243-1.303345 0-2.5604831.3835949-3.6353748 1.1092243-1.5839424 1.0689546-3.4342845 1.6337632-5.3512264 1.6337632-1.916942 0-3.7672841-.5648086-5.3509683-1.6337632-1.0751499-.7256294-2.332288-1.1092243-3.6353749-1.1092243-1.303345 0-2.5604831.3835949-3.635633 1.1092243-1.5834261 1.0689546-3.4340263 1.6337632-5.3509683 1.6337632s-3.767284-.5648086-5.35096825-1.6337632c-1.07514992-.7256294-2.33228801-1.1092243-3.63537488-1.1092243-1.30334501 0-2.5604831.3835949-3.63537489 1.1092243zm-.34189449-11.3705172c-.84695484 0-1.53360521-.6866503-1.53360521-1.5336052 0-.8469548.68665037-1.5336052 1.53360521-1.5336052h4.18959983c-.04310925.5056948-.06634178 1.0170686-.06634178 1.5336052 0 .5167948.02323253 1.0279105.06634178 1.5336052zm39.76867281 0c.0428512-.5056947.0660837-1.0168104.0660837-1.5336052 0-.5165366-.0232325-1.0279104-.0660837-1.5336052h4.1893417c.8469549 0 1.5336052.6866504 1.5336052 1.5336052 0 .8469549-.6866503 1.5336052-1.5336052 1.5336052zm-24.2929674 2.6118529c.571004.8593455 1.3092823 1.5976237 2.1686278 2.1686277l-2.2953741 2.2953741c-.8203665-.6177272-1.5509006-1.3482612-2.1686278-2.1688859zm-1.1600777-4.1454581c0 .5250552.0526604 1.0377198.1525603 1.5336052h-3.2453265c-.070472-.5007901-.1076441-1.0126802-.1076441-1.5328307v-.0012907c0-.5204087.0371721-1.0320407.1076441-1.533089h3.2453265c-.0998999.4956274-.1525603 1.0088082-.1525603 1.5336052zm3.3287055-6.4663879c-.8593455.571004-1.5976238 1.3095404-2.1686278 2.1688859l-2.2953741-2.2953741c.3087346-.4101833.6456063-.7979084 1.0077756-1.1603359l.0007744-.0007744c.3621694-.3621693.7501527-.6987829 1.1600778-1.0075174zm5.8308491-1.0075174c-.4956274-.0996418-1.0082919-.1523022-1.5333471-.1523022-.5253133 0-1.0379779.0526604-1.5336052.1523022v-3.2450684c.5007901-.070472 1.0119058-.107644 1.5320564-.107644h.0028395c.5201506 0 1.0315244.037172 1.5320564.107644zm5.039136 3.1764033c-.5712621-.8593455-1.3095403-1.5978819-2.1688858-2.1688859l2.2953741-2.2951159c.8203665.617469 1.5509005 1.3480031 2.1686277 2.1686277zm1.0813453 4.297502c0-.524797-.0526604-1.0379778-.1525603-1.5336052h3.2455847c.0702138.5013064.1073859 1.0129384.1073859 1.5336052 0 .5204087-.0371721 1.032557-.1073859 1.5336052h-3.2455847c.0998999-.4958854.1525603-1.00855.1525603-1.5336052zm-3.2502311 6.3140858c.8593455-.571004 1.5976237-1.3092822 2.1688858-2.1686277l2.295116 2.2951159c-.6177272.8206247-1.3482612 1.5511587-2.1686277 2.1688859z"/><path d="m65.7411665 17.7654168v6.995093h3.7366682c1.2256666 0 2.1695915-.34141 2.8322231-1.0237815.6626316-.6828202.9941718-1.5473369.9941718-2.5935501 0-.9959663-.3288484-1.8084416-.986545-2.4360798-.6576967-.6280868-1.6043133-.9416816-2.8398499-.9416816zm-6.7411665 7.7277115 2.3167432-.4486335v-15.61962288l-2.3167432-.44863347v-2.63033804h16.5016363v5.51549989h-3.3481516l-.1794534-2.15254339h-6.2328648v4.69360339h3.7366682c2.5213201 0 4.5137013.6150765 5.9789383 1.8456781 1.4647882 1.2306016 2.1969581 2.8721514 2.1969581 4.9250982 0 2.0825566-.7375535 3.7590999-2.2122117 5.0296298-1.4746582 1.27053-3.4625531 1.905795-5.9636847 1.905795h-10.4778347zm25.001446-5.2140182c0 1.4751069.2593102 2.6581533.7774818 3.5500367.5181717.8918833 1.3548731 1.337825 2.5110016 1.337825 1.12607 0 1.9506583-.4486335 2.4737649-1.3454518.5231067-.8968183.78466-2.0776216.78466-3.5424099v-.3140434c0-1.4347299-.2642451-2.6052146-.7922867-3.5123515-.5280416-.9066882-1.3602567-1.3602566-2.4961967-1.3602566-1.1359399 0-1.9627714.4535684-2.4809431 1.3602566-.5181716.9071369-.7774818 2.0776216-.7774818 3.5123515zm-4.3643064-.3140434c0-2.4114049.6751934-4.3867381 2.0251315-5.9264482 1.3503868-1.5392614 3.2162534-2.3091164 5.5975998-2.3091164 2.3916651 0 4.2624666.7671632 5.6124048 2.3019383 1.3503867 1.5347751 2.0255801 3.5123514 2.0255801 5.9336263v.3140434c0 2.4311448-.6751934 4.4118616-2.0255801 5.9417017-1.3499382 1.5293915-3.2108698 2.2943116-5.5823463 2.2943116-2.401535 0-4.2772715-.7649201-5.6276583-2.2943116-1.3499381-1.5298401-2.0251315-3.5105569-2.0251315-5.9417017zm33.0261534.400181c0-1.5240079-.224317-2.764928-.672502-3.7218632-.448633-.9564866-1.141324-1.4347299-2.077622-1.4347299-.179453 0-.344101.00987-.493496.0300585-.149395.0197398-.28892.0448633-.418575.0744731v9.8802549c.139525.0296098.286676.0520415.441006.0668464.15433.0152536.32167.0228803.500675.0228803.946617 0 1.636615-.41364 2.070444-1.2409201.43338-.8268315.65007-1.9479666.65007-3.3629565zm-11.613775.3140435c0 1.4248599.20682 2.5486867.62046 3.3705832.413191.8218965 1.10319 1.2332934 2.069995 1.2332934.149395 0 .29879-.0053836.448633-.0152535.149395-.0098699.29879-.0300584.448185-.0596683v-9.9098647c-.139525-.0296098-.281293-.0520415-.425753-.067295-.144909-.0152535-.291612-.0224317-.441007-.0224317-.956935 0-1.649176.473757-2.077621 1.419925-.428445.9466166-.642892 2.1924717-.642892 3.7366681zm7.95158-15.6792912v7.2638245c.289368-.1292064.605655-.2310462.949308-.305968s.710187-.1121584 1.098703-.1121584c1.893234 0 3.362957.7824168 4.40917 2.3463531 1.046213 1.5648335 1.56932 3.6222666 1.56932 6.1731965v.3140435c0 2.3912164-.520415 4.314508-1.561693 5.769875-1.041278 1.4544697-2.503824 2.1821532-4.386738 2.1821532-.388965 0-.75505-.0349934-1.098704-.1049802-.344101-.0695382-.670258-.1641999-.979366-.2835364v3.2135616l2.316743.4481848v2.6303381h-8.997793v-2.6303381l2.316743-.4481848v-3.1987567c-.29879.1193365-.617768.211755-.956486.2763583-.338719.0650518-.687756.0973534-1.046662.0973534-1.892785 0-3.3575732-.7276835-4.3939165-2.1821532-1.036792-1.455367-1.554515-3.3786586-1.554515-5.769875v-.3140435c0-2.5509299.5204148-4.608363 1.5616931-6.1731965 1.0412783-1.5639363 2.5136934-2.3463531 4.4167964-2.3463531.368777 0 .715122.0349934 1.039035.1045316.323465.0695382.635265.1641999.934055.283985v-4.15524319l-2.316743-.44863347v-2.63033804zm14.480542 15.2791101c0 1.4751069.25931 2.6581533.777033 3.5500367.518172.8918833 1.355322 1.337825 2.51145 1.337825 1.125622 0 1.95021-.4486335 2.473317-1.3454518.523555-.8968183.785108-2.0776216.785108-3.5424099v-.3140434c0-1.4347299-.264245-2.6052146-.792286-3.5123515-.528491-.9066882-1.360257-1.3602566-2.496197-1.3602566s-1.96322.4535684-2.481392 1.3602566c-.517723.9071369-.777033 2.0776216-.777033 3.5123515zm-4.364755-.3140434c0-2.4114049.675193-4.3867381 2.02558-5.9264482 1.349938-1.5392614 3.216254-2.3091164 5.5976-2.3091164 2.391665 0 4.262467.7671632 5.612405 2.3019383 1.350386 1.5347751 2.02558 3.5123514 2.02558 5.9336263v.3140434c0 2.4311448-.675194 4.4118616-2.02558 5.9417017-1.349938 1.5293915-3.21087 2.2943116-5.582347 2.2943116-2.401535 0-4.27772-.7649201-5.627658-2.2943116-1.350387-1.5298401-2.02558-3.5105569-2.02558-5.9417017zm29.154895.283985c0-1.5240079-.253927-2.7599931-.762229-3.7066098-.508301-.9466166-1.285334-1.4199249-2.331996-1.4199249-.657697 0-1.21804.13459-1.681479.4037701-.463438.2687315-.829523.6523131-1.098703 1.1507449v7.0848197c.26918.4585034.635265.8070916 1.098703 1.0462133.463439.2391216 1.034101.3589068 1.711537.3589068 1.056083 0 1.830873-.4136401 2.32437-1.2409202.493048-.8268315.739797-1.9479665.739797-3.3629565zm-12.555457-5.5899731v-2.6307867h6.337397l.209063 1.8833634c.478692-.6976251 1.051597-1.2355366 1.719164-1.6141833.667566-.3786466 1.445048-.5679699 2.331548-.5679699 2.003148 0 3.557663.7824167 4.663545 2.346353 1.10633 1.5648336 1.659046 3.6222666 1.659046 6.1731966v.3140434c0 2.3912164-.552716 4.3145081-1.659046 5.7698751-1.105882 1.4544697-2.650527 2.1821532-4.633487 2.1821532-.84702 0-1.599378-.1574704-2.257075-.4710652-.657697-.3140434-1.220732-.77479-1.689105-1.3826883v4.6787984l2.10768.4481849v2.630338h-8.564413v-2.630338l2.107232-.4481849v-16.2329048zm35.283677-2.4809431v5.5154999h-3.347703l-.179453-2.1821532h-2.765377v9.7752747l2.316743.4486335v2.6155331h-9.013046v-2.6155331l2.316743-.4486335v-9.7752747h-2.70526l-.164648 2.1821532h-3.347703v-5.5154999z"/><path d="m62.7551453 42.1805277h2.7258846l-1.3334494-3.6877703h-.0352986zm-2.7551453 2.6664345.6372318-.0887109 3.0031641-7.7582513h.9967198l2.9502163 7.7582513.6311939.0887109v.7431275h-2.4662544v-.7431275l.6488432-.1119336-.5661703-1.5814683h-3.4397515l-.5838196 1.5814683.6488433.1119336v.7431275h-2.4602166zm14.0581149-2.5610032c0-.7273361-.1416587-1.3232315-.4249761-1.7872217-.2828529-.4644547-.7036488-.6962176-1.2623878-.6962176-.3302273 0-.6135447.0747772-.8494877.2238671-.235943.1495544-.4268339.354379-.5722082.6135447v3.1095242c.1453743.2633458.3353363.4672414.5694215.6107579.2336207.1435166.5220471.2150426.8638857.2150426.5508433 0 .9679236-.2006445 1.2507765-.6014689.2833174-.4012888.4249761-.922407.4249761-1.5638189zm-5.2334756 4.7792388.9618857-.1648814v-7.0095503l-.9618857-.1648815v-.7496298h1.95907l.1063601.7788905c.2122558-.2912131.470957-.5132225.7756393-.6664925.3046823-.1537345.6581323-.230834 1.0589567-.230834.7905019 0 1.40544.3139714 1.8438852.9414497.4384452.6270138.6581323 1.4565299.6581323 2.4866905v.1240094c0 .9205492-.220616 1.6627478-.660919 2.2275247-.4407675.5643125-1.0482743.8467009-1.8234492.8467009-.3933931 0-.7380185-.066417-1.0352695-.1978577-.2967866-.1319051-.5499144-.3274405-.7579901-.5866063v2.2005864l.9614213.1648814v.7496299h-3.0858371zm10.1627333-7.2924032c-.389213 0-.7217626.1644169-.9967198.4927864-.2754216.3283695-.4449476.7398763-.5076489 1.235914l.0120758.0292606h2.9437139v-.15327c0-.4560946-.1216872-.8374119-.3655259-1.1448809-.2438387-.3065401-.6056489-.4598101-1.0858951-.4598101zm.1774217 5.7113994c-.8889663 0-1.5963308-.2963221-2.1211646-.8880374-.5252983-.5917153-.7877152-1.3603878-.7877152-2.3041597v-.2596302c0-.9084734.2703127-1.6650701.8114024-2.2683968.5406253-.6037911 1.1806439-.9061511 1.9200557-.9061511.8578479 0 1.50762.2600946 1.9502453.779355.4426254.5187959.6637058 1.2117623.6637058 2.076577v.7254782h-4.142007l-.0176493.0297251c.0120758.6135447.1672037 1.1179425.4663125 1.5136579.2986444.3952509.7175825.5926442 1.2568144.5926442.3933932 0 .738483-.0557346 1.0352696-.1676682.2967865-.112398.55363-.2670614.7700659-.4635258l.4542367.7556678c-.2280473.2196871-.5299429.4059334-.9056867.5573457-.3757439.1514122-.8267294.2271183-1.3538855.2271183zm3.5934861-5.8767453v-.7496299h3.085837v.7496299l-.9618857.1648814v1.8466719h2.8378182v-1.8466719l-.9614212-.1648814v-.7496299h3.0914105v.7496299l-.9614212.1648814v4.5604807l.9614212.1653459v.7431275h-3.0914105v-.7431275l.9614212-.1653459v-1.8048709h-2.8378182v1.8048709l.9618857.1653459v.7431275h-3.085837v-.7431275l.9618856-.1653459v-4.5604807zm11.1213678 1.6516009c-.0431943.7082934-.1444454 1.3116201-.3037534 1.8113733-.159308.4997533-.3645969.9205493-.6163314 1.2623879h2.8615054v-4.4425092h-1.8880083zm-2.2595721 3.0737612c.3265116-.3771372.5763882-.7719237.7491654-1.1825016.1732416-.4110425.2893553-1.0417719.348341-1.8912596l.0589858-1.4927574-.9261227-.1588435v-.7496299h6.0945746v.7496299l-.9618857.1648814v4.5604807h.8499521l-.1179715 2.7853349h-1.0445586v-1.8768615h-4.3955993v1.8768615h-1.0440942l-.112398-2.7853349zm9.6007429.1774217c.385498 0 .737554-.0924265 1.05617-.276815.318616-.1853174.546663-.4073268.684142-.6669569v-1.0501321h-1.238701c-.476066 0-.852739.1100757-1.130018.3302273-.277279.220616-.415687.4876774-.415687.8025777 0 .2791373.086389.492322.259166.6400186.173241.1476966.434729.2210804.784928.2210804zm1.870359.8494877c-.035298-.1727772-.063166-.3283695-.082673-.4653836-.019507-.1379431-.03344-.2754217-.041336-.4133647-.223867.287033-.504398.5262271-.840663.717118-.336265.1904265-.695289.2861041-1.076606.2861041-.664635 0-1.170426-.1625591-1.5164447-.487213-.3460188-.3241893-.5192604-.7812128-.5192604-1.3715347 0-.6056489.2447676-1.0724259.7343029-1.4007954.4899992-.3288339 1.1616012-.4932509 2.0152692-.4932509h1.197364v-.7435919c0-.3729572-.117972-.6692793-.353915-.887573s-.564312-.3274405-.985108-.3274405c-.291213 0-.548057.0371563-.770066.1119335-.222474.0752417-.402218.1769573-.539696.3070046l-.12401.6725304h-.8968616v-1.2387007c.2912131-.2322273.6432697-.4184737 1.0561696-.5578101.412901-.1398008.861099-.2099335 1.345061-.2099335.724085 0 1.309762.1853174 1.758426.5550234.448198.3697059.67253.8987198.67253 1.5870417v3.0742257c0 .0826729.000929.163488.002787.2415164.002322.0784928.006967.1574501.014862.235943l.472351.0650236v.7431276zm5.212111-5.6398735v-.7496299h3.085837v.7496299l-.961421.1648814v1.7816483h.61308l1.333914-1.7876862c.239658-.3339429.474673-.5879996.705042-.7607768.229905-.1732416.488606-.2600946.775639-.2600946.181138 0 .330228.0227583.448199.0682748.118436.0450522.251735.1151848.401289.2094691l-.164881.7905019c-.169526-.0278673-.266597-.0431943-.292142-.0473744-.025545-.0037156-.077564-.0055734-.156522-.0055734-.145374 0-.287962.0529478-.427762.1588435-.139337.1063601-.262417.2322273-.368777.3780661l-1.233128 1.5986531 2.012018 2.4546431.820227.1472321v.7431276h-1.551743l-2.15925-2.707771h-.755203v1.7992976l.961421.1653458v.7431276h-3.085837v-.7431276l.961886-.1653458v-4.5604808zm10.102354 4.7903858c.385498 0 .737554-.0924265 1.05617-.276815.318616-.1853174.546663-.4073268.684142-.6669569v-1.0501321h-1.238701c-.476066 0-.852739.1100757-1.130018.3302273-.27728.220616-.415687.4876774-.415687.8025777 0 .2791373.086389.492322.259166.6400186.173241.1476966.434729.2210804.784928.2210804zm1.870359.8494877c-.035298-.1727772-.063166-.3283695-.082673-.4653836-.019507-.1379431-.03344-.2754217-.041336-.4133647-.223867.287033-.504398.5262271-.840663.717118-.336265.1904265-.695289.2861041-1.076606.2861041-.664635 0-1.170426-.1625591-1.516445-.487213-.346483-.3241893-.51926-.7812128-.51926-1.3715347 0-.6056489.244767-1.0724259.734303-1.4007954.489999-.3288339 1.161601-.4932509 2.015269-.4932509h1.197364v-.7435919c0-.3729572-.117507-.6692793-.353915-.887573-.235943-.2182937-.564312-.3274405-.985108-.3274405-.291213 0-.548057.0371563-.770066.1119335-.222474.0752417-.402218.1769573-.539696.3070046l-.12401.6725304h-.896862v-1.2387007c.291213-.2322273.64327-.4184737 1.05617-.5578101.412901-.1398008.861099-.2099335 1.345061-.2099335.724085 0 1.309762.1853174 1.758426.5550234.448198.3697059.67253.8987198.67253 1.5870417v3.0742257c0 .0826729.000929.163488.002787.2415164.002322.0784928.006967.1574501.014862.235943l.472351.0650236v.7431276zm8.002555-6.5019014v1.8996197h-.997185l-.088246-.9967198h-1.369212v4.5720921l.961885.1653459v.7431275h-3.085837v-.7431275l.961886-.1653459v-4.5720921h-1.345061l-.088711.9967198h-.991146v-1.8996197zm3.657116.9149758c-.389677 0-.721763.1644169-.997184.4927864-.275422.3283695-.444483.7398763-.507649 1.235914l.011611.0292606h2.944643v-.15327c0-.4560946-.122152-.8374119-.36599-1.1448809-.243839-.3065401-.605649-.4598101-1.085431-.4598101zm.176957 5.7113994c-.888966 0-1.595866-.2963221-2.121164-.8880374-.525299-.5917153-.787716-1.3603878-.787716-2.3041597v-.2596302c0-.9084734.270313-1.6650701.811403-2.2683968.540625-.6037911 1.180644-.9061511 1.92052-.9061511.857383 0 1.507156.2600946 1.949781.779355.442625.5187959.663706 1.2117623.663706 2.076577v.7254782h-4.142007l-.01765.0297251c.012076.6135447.167204 1.1179425.466313 1.5136579.299109.3952509.717582.5926442 1.256814.5926442.392929 0 .738019-.0557346 1.03527-.1676682.296786-.112398.55363-.2670614.770066-.4635258l.454236.7556678c-.228047.2196871-.529942.4059334-.905686.5573457-.375744.1514122-.827194.2271183-1.353886.2271183zm8.362507-3.198235c0-.7273361-.141659-1.3232315-.424511-1.7872217-.283318-.4644547-.704114-.6962176-1.262853-.6962176-.330227 0-.613544.0747772-.849487.2238671-.235943.1495544-.426834.354379-.572209.6135447v3.1095242c.145375.2633458.335337.4672414.569422.6107579.234085.1435166.522047.2150426.86435.2150426.550379 0 .967459-.2006445 1.250777-.6014689.282852-.4012888.424511-.922407.424511-1.5638189zm-5.233475 4.7792388.961885-.1648814v-7.0095503l-.961885-.1648815v-.7496298h1.95907l.10636.7788905c.212255-.2912131.470957-.5132225.775639-.6664925.304682-.1537345.658132-.230834 1.058957-.230834.790966 0 1.40544.3139714 1.843885.9414497.438445.6270138.658132 1.4565299.658132 2.4866905v.1240094c0 .9205492-.220151 1.6627478-.660919 2.2275247-.440303.5643125-1.048274.8467009-1.823449.8467009-.392929 0-.738019-.066417-1.03527-.1978577-.296786-.1319051-.549449-.3274405-.75799-.5866063v2.2005864l.961422.1648814v.7496299h-3.085837zm8.593805-4.8261488c0 .6767105.142588 1.2349851.427763 1.6752881.285175.4407675.708758.6609191 1.271212.6609191.550843 0 .969782-.2201516 1.256815-.6609191.287033-.440303.430549-.9985776.430549-1.6752881v-.1300473c0-.6683503-.143516-1.224767-.430549-1.6692502-.287033-.4444831-.709687-.6669569-1.268426-.6669569s-.979535.2224738-1.262852.6669569c-.282853.4444832-.424512 1.0008999-.424512 1.6692502zm-1.16253-.1300473c0-.9437719.255914-1.7217336.767279-2.3334204.511365-.6112224 1.20526-.9177625 2.082615-.9177625.88107 0 1.578217.3056112 2.091439.9149758.513223.609829.770066 1.3882551.770066 2.3362071v.1300473c0 .9521322-.255914 1.7305582-.766814 2.3362072-.511365.6061134-1.205725.9089378-2.08308.9089378-.884786 0-1.582861-.3037533-2.094226-.9117246-.511365-.6075067-.767279-1.3854683-.767279-2.3334204zm9.090772.3362652v1.8996197h1.758425c.432407 0 .758919-.081744.979535-.245232.220152-.1630236.330227-.3980377.330227-.7045778 0-.3028245-.110075-.5369097-.330227-.7022555-.220616-.1648814-.547128-.2475544-.979535-.2475544zm0-.8912886h1.357136c.491858 0 .862493-.0724549 1.111905-.2182937.250341-.1453743.374815-.3655258.374815-.660919 0-.3028245-.124474-.5308717-.374815-.6841418-.249412-.15327-.621905-.2299051-1.117943-.2299051h-1.351098zm1.351098-2.6961595c.842057 0 1.49508.1467677 1.95907.4398386.463991.2930709.696218.7324451.696218 1.3185869 0 .2986444-.090569.5652414-.271242.7993265-.181137.2340852-.436587.4119714-.767279.534123.397109.0984643.708294.281924.932161.5513077.224331.2693837.336265.5773172.336265.9233359 0 .5977532-.217365 1.0501321-.652094 1.3571367-.434266.3065401-1.043166.4598101-1.825772.4598101h-3.882377v-.7431275l.961886-.1653459v-4.5604807l-.961886-.1648814v-.7496299z" opacity=".48"/></g></svg>